<?xml version="1.0" encoding="iso-8859-1"?>
<!-- Uploaded to: SVG Repo, www.svgrepo.com, Generator: SVG Repo Mixer Tools -->
<svg fill="#000000" height="800px" width="800px" version="1.1" id="Layer_1" xmlns="http://www.w3.org/2000/svg" xmlns:xlink="http://www.w3.org/1999/xlink" 
	 viewBox="0 0 512 512" xml:space="preserve">
<g>
	<g>
		<path d="M428.522,66.783h-244.87c-9.22,0-16.696,7.475-16.696,16.696s7.475,16.696,16.696,16.696h244.87
			c9.22,0,16.696-7.475,16.696-16.696S437.742,66.783,428.522,66.783z"/>
	</g>
</g>
<g>
	<g>
		<path d="M428.522,133.565h-244.87c-9.22,0-16.696,7.475-16.696,16.696v144.696c0,9.22,7.475,16.696,16.696,16.696h244.87
			c9.22,0,16.696-7.475,16.696-16.696V150.261C445.217,141.04,437.742,133.565,428.522,133.565z M411.826,278.261H200.348V166.957
			h211.478V278.261z"/>
	</g>
</g>
<g>
	<g>
		<path d="M428.522,345.043h-244.87c-9.22,0-16.696,7.475-16.696,16.696s7.475,16.696,16.696,16.696h244.87
			c9.22,0,16.696-7.475,16.696-16.696S437.742,345.043,428.522,345.043z"/>
	</g>
</g>
<g>
	<g>
		<path d="M428.522,411.826h-244.87c-9.22,0-16.696,7.475-16.696,16.696s7.475,16.696,16.696,16.696h244.87
			c9.22,0,16.696-7.475,16.696-16.696S437.742,411.826,428.522,411.826z"/>
	</g>
</g>
<g>
	<g>
		<path d="M495.304,0H116.87c-9.22,0-16.696,7.475-16.696,16.696v116.87H16.696C7.475,133.565,0,141.04,0,150.261v294.957
			C0,482.041,29.959,512,66.783,512h378.435C482.041,512,512,482.041,512,445.217V16.696C512,7.475,504.525,0,495.304,0z
			 M100.174,445.217c0,18.412-14.979,33.391-33.391,33.391c-18.412,0-33.391-14.979-33.391-33.391V166.957h66.783V445.217z
			 M478.609,445.217c0,18.412-14.979,33.391-33.391,33.391H124.603c5.821-10.041,8.962-21.561,8.962-33.391V150.261V33.391h345.043
			V445.217z"/>
	</g>
</g>
</svg>